<?xml version="1.0" encoding="UTF-8"?>
<svg id="Layer_14" data-name="Layer 14" xmlns="http://www.w3.org/2000/svg" viewBox="0 0 531.08 362.71">
  <defs>
    <style>
      .cls-1 {
        fill: #65bca3;
      }

      .cls-2 {
        fill: #9fc7bc;
      }

      .cls-3 {
        fill: #5b97b7;
      }

      .cls-4 {
        fill: #c1507b;
      }

      .cls-5 {
        fill: #5a96b7;
      }

      .cls-6 {
        fill: #a73146;
      }

      .cls-7 {
        fill: #fefefc;
      }

      .cls-8 {
        fill: #c2527c;
      }

      .cls-9 {
        fill: #d4556b;
      }

      .cls-10 {
        fill: #f197b7;
      }

      .cls-11 {
        fill: #d4566b;
      }

      .cls-12 {
        fill: #f2c1e8;
      }

      .cls-13 {
        fill: #fef8c7;
      }

      .cls-14 {
        fill: #2d856d;
      }

      .cls-15 {
        fill: #f2dfee;
      }

      .cls-16 {
        fill: #fdfcfd;
      }

      .cls-17 {
        fill: #fefdfe;
      }

      .cls-18 {
        fill: #efdc59;
      }

      .cls-19 {
        fill: #fefefe;
      }

      .cls-20 {
        fill: #aad5ee;
      }

      .cls-21 {
        fill: #f5cedc;
      }

      .cls-22 {
        fill: #fdfdfd;
      }
    </style>
  </defs>
  <path class="cls-19" d="M517.23,19.53v288H85.23V19.53h432ZM377.39,93.87c2.08-5.72,2.88-11.83,3.6-17.87.41-3.48,1.37-9.04.52-12.27s-3.31-6.21-6.88-6.55c-4.04-.39-8.04-.67-12.06-1.13-7.84-.9-14.86-.91-22.73-1.04-10.65-.17-21.44-.41-32.14-.7-3.81-.1-9.03-.91-12.7-.49-4.87.55-8.41,8.01-8.75,12.35-.18,2.34.18,4.65.25,6.94.11,4.12-.24,9.8.22,13.68.41,3.38,5.57,4.03,8.27,4.2,5.01.32,9.87.51,14.88.95,1.66.14,3.48.14,5.16.24.09,2.25-.49,4.47-.48,6.72-.39.47-.39,1.21,0,1.68-.12,2.71-.1,5.45-.24,8.15-2.4-.93-5.24-.83-7.81-.73-4.62.18-9.29.91-13.9,1.21-2.37.15-5.94-.62-7.8,1.07-1.99,1.81-1.03,5.65-.95,8.04,0,.01-.21-.05-.2.15,0,.22.2.31.2.33.05,1.55.22,3.14.25,4.66.08,3.57-.17,7.06-.26,10.55-.05,1.74.52,6.69-1.06,7.58-1.83,1.03-3.5-.17-4.82-1.44-2.91-2.81-6.51-12.62-7.96-16.74-.52-1.48-1.13-3.05-1.26-4.62.27-.22,1.07-.96,1.44-1.32,2.88-2.72,3.53-8.38,2.76-12.12-1.28-6.23-13.18-21.28-18.52-24.89-17.74-11.96-34.57-3.67-42.05,14.82-1.78-6.73-3.75-13.51-7.62-19.36-9.47-14.29-28.14-19.45-44.47-16.3-7.23,1.4-23.8,7.36-28.22,13.27-1.73,2.32-1.23,3.22-.65,5.84,1.07,4.83,2.85,9.76,4.14,14.57,7.83,29.18,15.39,58.6,22,88.07,1.41,6.3,3.89,5.64,9.3,4.23,3.62-.94,7-2.19,10.1-4.29,2.29-1.56,4.2-3.57,6.4-5.23,3.14,5.43,9.26,11.88,14.39,15.59-1.37,1.13-3.02,1.83-4.49,2.82-7.31,4.95-17.93,17.02-18.75,26.1s10.67,14.1,16.38,6.55c1.23-1.63,1.26-3.02,1.95-4.77,2.08-5.25,7.29-11.17,12.27-13.87,1.73-.94,5.12-2.66,6.46-.56,3.89,6.07-2.31,18.59-5.9,23.9-5.47,8.09-12.96,15.06-21.64,19.37-8.23,4.08-6.27,15.79,2.84,17.17,11.79,1.79,28.09,3.74,39.79,2.18s11.55-15.99.73-17.99l-15.48.25c14-14.44,27.72-40.59,11.99-58.51,15.02-4.33,25.31-15.98,23.96-32.22-1.18-5.12-1.85-10.47-3.16-15.55-2.35-9.14-8.3-20.37-7.38-29.82.15-1.55,2.66-4.36,4.08-4.8,1.82-.57,6.63,2.21,6.72,4.45-1.19-.02-6.47,1.53-7.52,2.2-.44.28-1.57,1.37-1.78,1.81-.85,1.75.15,2.82.55,4.38,2.41,9.5,5.03,18.7,8.27,27.94,3.91,11.16,8.62,23.01,17.75,30.93,6.66,5.78,15.67,7.34,24.23,6.11-.04.04-.01.35-.14.46-3.77,3.15-6.46,7.14-5.8,12.31,1.01,7.9,11.23,10.41,16.11,4,1.15-1.51,1.79-3.99,4.22-3.82.19,4.88-1.38,9.8-3.05,14.33-1.76,4.78-4.07,9.37-7.27,13.36-5.84,7.29-19.53,15.82-13.29,26.49,4.83,8.26,17.87,7.26,26.14,7.44,5.3.12,10.81,1.66,14.62-3.1,3.44-4.31,2.03-10.91-2.84-13.48-3.81-2-9.53-1.09-13.72-1.4-.36-.03-.69.19-.59-.36,8.94-9.06,15.09-22.11,17.43-34.61,2.46-13.15-1.69-24.99-16.12-27.14h-3.95c7.7-5.36,10.18-10.09,13.2-18.82.96-2.78,1.93-5.62,2.39-8.52,2.81.91,6.8.49,9.71.72,6.33.5,10.8,2.89,17.22.19,2.63-1.11,3.11-3.13,3.69-5.66.85-3.7,1.3-7.56,2.16-11.27l2.23-15.4c1.54,13.96,3.76,27.87,5.03,41.85.29,3.18-.19,9.47,1.4,12.03,2.41,3.9,9.7,1.04,12.83-.69,6.66-3.69,15.23-9.74,21.25-14.48,13.08-10.3,19.69-27.22,13.7-43.38-5.02-13.56-14.18-23.87-28.79-26.97ZM350.28,206.82c3.45-.43,6.97-.28,10.43-.48,3.12-.18,7.59-.15,10.43-1.32,7.1-2.92,7.28-13.23.33-16.39-2.97-1.36-6.23-.59-9.31-.5-5.05.16-10.09.41-15.11.72-4.82.29-10.26-.43-13.52,3.99s-1.02,7.77-1.23,12.44c-.42,9.21-5.89,26.4,8.51,27.68,6.09.54,13.5-2.93,18.31,1.6-.59,2.39-3.31,5.56-5.84,5.84-1.26.14-2.29-.26-3.36-.26-11.03.01-13.32,17.44,1.2,18.48,11.81.85,22.78-8.32,25.57-19.51,4.13-16.57-12.32-26.26-26.9-25.09l.48-7.19ZM256.69,198.73c-2.07.21-4.09.88-5.71,2.2-.51.41-1.75,2.06-1.92,2.16-.55.31-2.21.24-2.93.42-9.88,2.44-13.04,15.92-12.41,24.76,1.22,17.08,16.29,26.95,32.44,20.69,11.18-4.34,18.3-18.58,16.42-30.2s-13.52-21.29-25.89-20.02Z"/>
  <path class="cls-6" d="M212.36,95.31c-4.06,10.03-2.45,22.74,0,33.09-2.27,8.55-5.73,16.89-9.83,24.7-.53-.34-3.76-1.34-4.46-1.41-2.88-.31-7.36,1.57-9.85,3.05-4.29,2.54-9.09,8.71-8.13,13.96.26,1.42,2.48,6.09,3.25,7.42-2.2,1.66-4.11,3.68-6.4,5.23-3.1,2.11-6.48,3.35-10.1,4.29-5.41,1.41-7.89,2.06-9.3-4.23-6.62-29.47-14.17-58.89-22-88.07-1.29-4.81-3.07-9.74-4.14-14.57-.58-2.62-1.08-3.52.65-5.84,4.42-5.91,20.99-11.88,28.22-13.27,16.33-3.15,35.01,2,44.47,16.3,3.87,5.85,5.84,12.63,7.62,19.36ZM180.64,75.94c-1.12.16-2.5,1.04-1.64,2.25.64.89,2.29.46,3.23.6,2.77.4,6.63,3.24,8.06,5.61,1.77,2.91,2.05,6.4,3.14,9.57.59.74,1.94.53,2.13-.46.47-2.43-2.24-9.69-3.84-11.74-1.94-2.49-7.89-6.28-11.09-5.83ZM147.78,93.44c-1.96.39-.38,2.07-.1,2.88,1.72,5.01,3.38,11,4.7,16.16,2.4,9.33,3.56,19.53,6.37,28.64.8,2.6,2.86,1.97,2.71-.05-.16-2.24-1.46-5.73-1.99-8.1-2.71-12.21-4.9-25.99-9.36-37.65-.44-1.15-.91-2.16-2.33-1.88ZM176.62,119.29c4.63-3.93,15.23-14.91,6.69-20-3.32-1.98-8.03-1.2-11.42.3-.46.21-2.34,1.05-2.45,1.4-.36,1.13,6.82,15.81,7.17,18.3Z"/>
  <path class="cls-10" d="M377.39,93.87c-6.67-1.42-18.59-1.82-25.19-.13-1.6.41-3.11,1.41-3.7,3.01-.76,2.05.14,3.06.52,4.99,1.57,8.07,2.06,15.67,2.95,23.78l-2.23,15.4c-.87,3.71-1.32,7.56-2.16,11.27-.58,2.53-1.06,4.55-3.69,5.66-6.42,2.71-10.89.31-17.22-.19-2.92-.23-6.9.19-9.71-.72-6.79-2.21-6.19-10.55-5.75-16.18.8-10.53,2.53-20.95,3.12-31.54,0-.12,0-.2,0-.24,0-.08,0-.16,0-.24.14-2.7.12-5.45.24-8.15.03-.71,0-1.07,0-1.68-.01-2.25.57-4.46.48-6.72-1.68-.1-3.49-.1-5.16-.24-5.01-.43-9.87-.63-14.88-.95-2.7-.17-7.86-.83-8.27-4.2-.47-3.88-.11-9.57-.22-13.68-.06-2.29-.43-4.61-.25-6.94.34-4.35,3.88-11.8,8.75-12.35,3.67-.42,8.9.39,12.7.49,10.7.29,21.49.52,32.14.7,7.87.13,14.88.14,22.73,1.04,4.02.46,8.02.75,12.06,1.13,3.57.34,6.01,3.24,6.88,6.55s-.11,8.79-.52,12.27c-.71,6.04-1.51,12.15-3.6,17.87ZM301.77,63.93c-.73.14-1.13.83-1.15,1.53.77,4.69.21,9.49.3,14.15.04,2.02,2.5,2.2,2.82.22.37-2.24.13-7.59.02-10.07-.05-1.07-.16-3.79-.41-4.63-.22-.73-.75-1.36-1.58-1.2ZM323.33,93.67c-1.08.37-.17,5.43-.14,6.55.17,6.29-.95,12.07-1.22,18.22-.21,4.86.19,9.78,0,14.65.23,1.8,2.38,1.97,2.65-.49.45-4.03-.19-9.02,0-13.2.33-7.69,2.18-16.5.91-24.15-.22-1.35-.76-1.91-2.19-1.58Z"/>
  <path class="cls-20" d="M212.36,95.31c7.48-18.49,24.31-26.78,42.05-14.82,5.34,3.6,17.24,18.66,18.52,24.89.77,3.74.11,9.4-2.76,12.12-.37.35-1.18,1.1-1.44,1.32-2.52,2.1-6.13,4.34-9.48,4.55-4.4.28-8.58-3.33-10.73-6.9-.13-.11-.28-.05-.42-.05-.09-2.24-4.9-5.02-6.72-4.45-1.42.44-3.93,3.25-4.08,4.8-.92,9.45,5.03,20.67,7.38,29.82,1.31,5.08,1.97,10.43,3.16,15.55,1.36,16.24-8.94,27.89-23.96,32.22-8.96,2.58-18.33,3.01-26.15-2.64-5.13-3.71-11.26-10.16-14.39-15.59-.77-1.33-2.99-6-3.25-7.42-.96-5.25,3.84-11.42,8.13-13.96,2.49-1.48,6.97-3.36,9.85-3.05.71.08,3.93,1.07,4.46,1.41,3.66,2.35,6.76,6.75,10.95,8.6,3.88,1.71,5.53,1.3,6.63-2.9,1.77-6.81-3.5-16.16-5.59-22.84-.74-2.36-1.59-5.17-2.15-7.56-2.45-10.35-4.06-23.06,0-33.09ZM234.37,98.61c1.29-1.29-.64-2.4-1.76-2.56-3.65-.5-4.96,1.89-6.47,4.76-4.26,8.1-4.29,22.57-.71,30.95.76,1.77,2.69,1.36,2.73-.11.03-1.07-1.1-3.78-1.38-5.07-1.69-7.88-2.32-20.56,3.34-27.06,1.62-1.86,3.23.11,4.25-.9ZM233.16,155.78c-1.76.54-.23,3.58,0,4.7.4,1.96.66,3.89.25,5.87-.85,4.17-4.64,7-6.79,10.48-.46,1.1.51,2.23,1.64,1.89.41-.12,4.85-5.78,5.41-6.6,2.79-4.13,3.13-7.47,2.08-12.31-.33-1.52-.65-4.62-2.59-4.03Z"/>
  <path class="cls-14" d="M314.3,108.74c0,.08,0,.16,0,.24v.24c-.59,10.59-2.31,21.01-3.12,31.54-.43,5.64-1.04,13.98,5.75,16.18-.47,2.9-1.43,5.74-2.39,8.52-3.02,8.74-5.49,13.46-13.2,18.82-1.59,1.11-3.19,2.24-4.95,3.08-1.25.6-6.43,2.11-6.8,2.43-8.56,1.23-17.57-.34-24.23-6.11-9.13-7.92-13.84-19.78-17.75-30.93-3.24-9.24-5.86-18.45-8.27-27.94-.4-1.56-1.4-2.63-.55-4.38.22-.44,1.35-1.54,1.78-1.81,1.04-.66,6.32-2.22,7.52-2.2.15,0,.29-.06.42.05,2.15,3.57,6.32,7.18,10.73,6.9,3.35-.21,6.96-2.45,9.48-4.55.13,1.57.74,3.14,1.26,4.62,1.45,4.11,5.05,13.93,7.96,16.74,1.32,1.27,2.99,2.47,4.82,1.44,1.58-.89,1.01-5.83,1.06-7.58.1-3.49.34-6.99.26-10.55-.03-1.53-.2-3.11-.25-4.66l.2-.15-.2-.33c-.08-2.39-1.04-6.23.95-8.04,1.86-1.69,5.43-.92,7.8-1.07,4.62-.3,9.28-1.03,13.9-1.21,2.56-.1,5.41-.21,7.81.73ZM254.02,136.83c-1.05.93-.96,2.52-.77,3.81,1.09,7.55,7.81,22.6,13.8,27.45.79.64,3.58,2.43,3.85.46.2-1.45-2.54-2.68-3.6-3.83-3.97-4.34-7.59-11.87-9.43-17.43-.59-1.78-1.83-5.38-2.03-7.08-.19-1.61.87-3.71-1.82-3.38ZM278.26,174c-.97.15-1.3,1.12-.86,1.97.49.95,3.79,2.72,4.77,2.46,1.09-.3,1.27-1.38.49-2.19-.15-.16-3.63-2.11-3.85-2.17s-.33-.09-.55-.06Z"/>
  <path class="cls-18" d="M377.39,93.87c14.61,3.1,23.77,13.42,28.79,26.97,5.99,16.16-.62,33.08-13.7,43.38-6.02,4.74-14.59,10.79-21.25,14.48-3.13,1.73-10.43,4.59-12.83.69-1.58-2.57-1.11-8.85-1.4-12.03-1.27-13.98-3.49-27.89-5.03-41.85-.9-8.11-1.38-15.72-2.95-23.78-.37-1.93-1.28-2.93-.52-4.99.59-1.6,2.1-2.6,3.7-3.01,6.6-1.69,18.52-1.29,25.19.13ZM388.48,111.91c-.33.33-.37,1.19-.2,1.63,2.49,3.89,6.31,8.73,6.38,13.55.02,1.16-1.16,2.4,0,3.34,1.4,1.13,2.46-1.26,2.61-2.41.56-4.37-3.58-12.09-6.36-15.43-.57-.69-1.56-1.56-2.44-.68ZM359.57,112.14c-.43.13-.84.81-.85,1.26,1.36,6.02,2.72,12.08,3.32,18.24.64,6.46.18,13.79,1.8,20.02.33,1.28,1.37,5.6,3.25,3.73.98-.97-.41-3.31-.71-4.59-1.33-5.63-.95-11.73-1.46-17.49-.61-6.9-1.96-13.69-3.58-20.4-.22-.81-1-1.01-1.77-.78ZM380.15,125.29c-1.56-.24-3.65.18-5.28,0-.14.1-.27.22-.32.4-.2.62.8,7.07,1,8.28.26,1.67.55,3.39,1.02,5,1.55.39,7.6-4.76,7.97-6.42.29-1.29.07-4.07-.7-5.19-.52-.76-2.82-1.94-3.68-2.07Z"/>
  <path class="cls-12" d="M223.87,194.35c15.73,17.92,2,44.07-11.99,58.51l15.48-.25c10.81,2.01,10.52,16.49-.73,17.99s-28-.39-39.79-2.18c-9.1-1.38-11.06-13.09-2.84-17.17,8.69-4.31,16.17-11.28,21.64-19.37,3.59-5.31,9.8-17.83,5.9-23.9-1.34-2.1-4.73-.38-6.46.56-4.98,2.7-10.2,8.62-12.27,13.87-.69,1.74-.72,3.13-1.95,4.77-5.71,7.55-17.21,2.71-16.38-6.55s11.44-21.15,18.75-26.1c1.47-1,3.12-1.7,4.49-2.82,7.81,5.65,17.18,5.22,26.15,2.64ZM217.33,215.5c-1.38.41-.81,3.5-.96,4.8-.45,3.99-3.91,9.93-5.89,13.54-2.3,4.19-4.88,8.22-7.37,12.3-.5,1.64.93,2.79,2.42,1.94.56-.32,2.13-2.9,2.6-3.63,3.52-5.41,11.19-18.22,11.65-24.32.13-1.76.21-5.41-2.46-4.62Z"/>
  <path class="cls-12" d="M301.35,184.28h3.95c14.43,2.15,18.58,13.99,16.12,27.14s-8.49,25.55-17.43,34.61c-.1.54.24.33.59.36,4.19.31,9.91-.61,13.72,1.4,4.87,2.56,6.28,9.17,2.84,13.48-3.81,4.77-9.32,3.22-14.62,3.1-8.27-.19-21.3.81-26.14-7.44-6.25-10.67,7.44-19.19,13.29-26.49,3.2-3.99,5.5-8.57,7.27-13.36,1.67-4.53,3.24-9.45,3.05-14.33-2.43-.17-3.07,2.31-4.22,3.82-4.87,6.41-15.09,3.91-16.11-4-.66-5.17,2.03-9.15,5.8-12.31.13-.11.1-.42.14-.46.38-.32,5.56-1.84,6.8-2.43,1.76-.84,3.36-1.97,4.95-3.08ZM305.6,215.74c-1.41.42-.8,3.98-.96,5.28-.81,6.76-7.19,14.2-10.38,20.08-.6,2.36,1.59,3.29,3.11,1.43,1.93-2.35,5.12-8.02,6.65-10.86,2.17-4.01,4.61-9.28,4.04-13.95-.17-1.4-.97-2.42-2.47-1.98Z"/>
  <path class="cls-12" d="M350.28,206.82l-.48,7.19c14.57-1.17,31.03,8.51,26.9,25.09-2.79,11.19-13.76,20.36-25.57,19.51-14.52-1.04-12.23-18.47-1.2-18.48,1.07,0,2.09.4,3.36.26,2.53-.28,5.24-3.45,5.84-5.84-4.81-4.52-12.22-1.06-18.31-1.6-14.4-1.28-8.93-18.47-8.51-27.68.21-4.67-1.87-8.24,1.23-12.44,3.26-4.42,8.7-3.7,13.52-3.99,5.02-.31,10.06-.56,15.11-.72,3.08-.1,6.34-.86,9.31.5,6.94,3.16,6.76,13.47-.33,16.39-2.84,1.17-7.31,1.14-10.43,1.32-3.46.2-6.98.05-10.43.48ZM342.54,203.75c-.52.16-1.03.99-1.12,1.52-.27,1.68-.25,8.34-.03,10.07.21,1.61,2.41,1.84,2.95.53.19-.46.34-1.69.39-2.25.12-1.42.24-8.2-.15-9.14-.35-.83-1.24-.97-2.05-.73ZM363.89,225.57c-2.38.7.62,4.21,1.04,5.57.8,2.58.33,4.66-.55,7.15-.58,1.65-2.92,4.72-2.22,6.17.64,1.34,2.18.52,2.88-.24,2.58-2.77,4.17-9.57,3.37-13.21-.4-1.83-2.13-6.15-4.52-5.45Z"/>
  <path class="cls-12" d="M256.69,198.73c12.36-1.27,23.92,7.86,25.89,20.02s-5.24,25.87-16.42,30.2c-16.14,6.26-31.22-3.6-32.44-20.69-.63-8.84,2.53-22.32,12.41-24.76.73-.18,2.38-.11,2.93-.42.17-.09,1.41-1.74,1.92-2.16,1.62-1.32,3.64-1.99,5.71-2.2ZM248.04,210.71c-2.25.46-3.6,4.73-4.09,6.7-.9,3.6-1.72,11.2.45,14.34.89,1.29,2.84,1.31,3.01-.34.14-1.38-.85-3.02-.99-4.55-.24-2.75.45-10.3,2.2-12.45.62-.76,1.68-.46,1.88-1.48.36-1.79-.78-2.56-2.46-2.22ZM256.17,216.93c-.69,1.28-2.64,2.34-3.33,3.38-1.69,2.55-1.47,10.21,1.41,11.89,2.02,1.18,5.57.2,7.14-1.42,1.21-1.25,3.03-4.89,3.23-6.6.66-5.63-3.29-7.96-8.45-7.25Z"/>
  <path class="cls-21" d="M314.54,100.59c-.39-.47-.39-1.21,0-1.68,0,.61.03.96,0,1.68Z"/>
  <path class="cls-2" d="M283.84,118.81s-.2-.12-.2-.33c0-.2.21-.14.2-.15l.2.33-.2.15Z"/>
  <path class="cls-22" d="M212.36,128.4c.57,2.38,1.42,5.2,2.15,7.56,2.09,6.69,7.36,16.04,5.59,22.84-1.09,4.2-2.75,4.61-6.63,2.9-4.19-1.85-7.29-6.25-10.95-8.6,4.11-7.81,7.56-16.15,9.83-24.7Z"/>
  <path class="cls-16" d="M176.62,119.29c-.36-2.49-7.54-17.17-7.17-18.3.11-.35,1.99-1.2,2.45-1.4,3.39-1.5,8.1-2.28,11.42-.3,8.54,5.09-2.07,16.08-6.69,20Z"/>
  <path class="cls-11" d="M147.78,93.44c1.42-.28,1.9.73,2.33,1.88,4.46,11.66,6.65,25.44,9.36,37.65.53,2.37,1.83,5.86,1.99,8.1.15,2.02-1.91,2.65-2.71.05-2.81-9.11-3.98-19.32-6.37-28.64-1.32-5.16-2.98-11.15-4.7-16.16-.28-.81-1.86-2.49.1-2.88Z"/>
  <path class="cls-9" d="M180.64,75.94c3.19-.45,9.15,3.34,11.09,5.83,1.6,2.05,4.3,9.31,3.84,11.74-.19.99-1.53,1.2-2.13.46-1.09-3.17-1.37-6.66-3.14-9.57-1.44-2.37-5.29-5.21-8.06-5.61-.94-.14-2.6.29-3.23-.6-.86-1.2.52-2.09,1.64-2.25Z"/>
  <path class="cls-4" d="M323.33,93.67c1.43-.32,1.97.23,2.19,1.58,1.27,7.66-.59,16.46-.91,24.15-.18,4.18.46,9.17,0,13.2-.27,2.47-2.42,2.29-2.65.49.19-4.87-.21-9.79,0-14.65.27-6.15,1.39-11.93,1.22-18.22-.03-1.13-.94-6.18.14-6.55Z"/>
  <path class="cls-8" d="M301.77,63.93c.83-.16,1.36.48,1.58,1.2.25.83.36,3.56.41,4.63.11,2.48.34,7.83-.02,10.07-.32,1.98-2.79,1.8-2.82-.22-.09-4.66.48-9.46-.3-14.15.02-.7.43-1.39,1.15-1.53Z"/>
  <path class="cls-21" d="M314.3,109.22v-.24s0,.12,0,.24Z"/>
  <path class="cls-3" d="M234.37,98.61c-1.02,1.02-2.63-.96-4.25.9-5.66,6.5-5.02,19.18-3.34,27.06.28,1.29,1.41,4,1.38,5.07-.04,1.47-1.97,1.88-2.73.11-3.58-8.37-3.55-22.84.71-30.95,1.51-2.87,2.82-5.27,6.47-4.76,1.13.16,3.06,1.27,1.76,2.56Z"/>
  <path class="cls-5" d="M233.16,155.78c1.94-.59,2.26,2.51,2.59,4.03,1.04,4.84.71,8.18-2.08,12.31-.55.82-5,6.47-5.41,6.6-1.14.34-2.11-.79-1.64-1.89,2.16-3.47,5.95-6.31,6.79-10.48.4-1.98.14-3.9-.25-5.87-.23-1.13-1.76-4.16,0-4.7Z"/>
  <path class="cls-1" d="M254.02,136.83c2.7-.33,1.63,1.77,1.82,3.38.21,1.7,1.45,5.3,2.03,7.08,1.83,5.57,5.45,13.09,9.43,17.43,1.05,1.15,3.79,2.38,3.6,3.83-.27,1.97-3.05.18-3.85-.46-5.99-4.85-12.72-19.89-13.8-27.45-.19-1.3-.28-2.88.77-3.81Z"/>
  <path class="cls-1" d="M278.26,174c.22-.03.35,0,.55.06s3.69,2.01,3.85,2.17c.78.82.6,1.9-.49,2.19-.98.26-4.28-1.5-4.77-2.46-.44-.84-.11-1.82.86-1.97Z"/>
  <path class="cls-13" d="M359.57,112.14c.76-.23,1.54-.03,1.77.78,1.62,6.71,2.97,13.5,3.58,20.4.5,5.75.13,11.86,1.46,17.49.3,1.28,1.69,3.61.71,4.59-1.88,1.87-2.92-2.45-3.25-3.73-1.62-6.23-1.16-13.56-1.8-20.02-.61-6.16-1.97-12.22-3.32-18.24.02-.45.42-1.13.85-1.26Z"/>
  <path class="cls-7" d="M380.15,125.29c.87.14,3.16,1.31,3.68,2.07.77,1.12.99,3.9.7,5.19-.37,1.66-6.42,6.81-7.97,6.42-.47-1.62-.76-3.34-1.02-5-.19-1.21-1.2-7.66-1-8.28.06-.17.18-.29.32-.4,1.63.18,3.72-.24,5.28,0Z"/>
  <path class="cls-13" d="M388.48,111.91c.88-.88,1.87,0,2.44.68,2.77,3.34,6.92,11.06,6.36,15.43-.15,1.16-1.21,3.55-2.61,2.41-1.16-.94.02-2.18,0-3.34-.07-4.82-3.9-9.66-6.38-13.55-.18-.44-.13-1.3.2-1.63Z"/>
  <path class="cls-15" d="M217.33,215.5c2.68-.79,2.6,2.86,2.46,4.62-.46,6.1-8.13,18.91-11.65,24.32-.47.73-2.04,3.31-2.6,3.63-1.49.85-2.92-.3-2.42-1.94,2.49-4.08,5.07-8.11,7.37-12.3,1.98-3.61,5.44-9.55,5.89-13.54.14-1.3-.42-4.39.96-4.8Z"/>
  <path class="cls-15" d="M305.6,215.74c1.5-.44,2.3.58,2.47,1.98.56,4.67-1.87,9.95-4.04,13.95-1.53,2.84-4.72,8.5-6.65,10.86-1.53,1.86-3.71.93-3.11-1.43,3.18-5.88,9.57-13.32,10.38-20.08.16-1.3-.46-4.86.96-5.28Z"/>
  <path class="cls-15" d="M363.89,225.57c2.39-.7,4.12,3.62,4.52,5.45.8,3.64-.78,10.43-3.37,13.21-.7.75-2.24,1.58-2.88.24-.69-1.46,1.64-4.52,2.22-6.17.88-2.49,1.35-4.57.55-7.15-.42-1.36-3.42-4.87-1.04-5.57Z"/>
  <path class="cls-15" d="M342.54,203.75c.81-.24,1.7-.09,2.05.73.39.94.28,7.72.15,9.14-.05.55-.2,1.79-.39,2.25-.54,1.31-2.74,1.08-2.95-.53-.23-1.73-.24-8.39.03-10.07.08-.53.59-1.36,1.12-1.52Z"/>
  <path class="cls-17" d="M256.17,216.93c5.16-.71,9.11,1.61,8.45,7.25-.2,1.72-2.02,5.35-3.23,6.6-1.57,1.62-5.12,2.6-7.14,1.42-2.88-1.68-3.1-9.34-1.41-11.89.69-1.04,2.64-2.1,3.33-3.38Z"/>
  <path class="cls-15" d="M248.04,210.71c1.68-.35,2.82.43,2.46,2.22-.2,1.01-1.26.71-1.88,1.48-1.75,2.14-2.44,9.7-2.2,12.45.13,1.54,1.12,3.18.99,4.55-.17,1.65-2.12,1.63-3.01.34-2.17-3.14-1.35-10.74-.45-14.34.49-1.97,1.84-6.24,4.09-6.7Z"/>
</svg>